{
  "accessors": [
    {
      "bufferView": 2,
      "componentType": 5126,
      "count": 65532,
      "max": [
        0.486846923828125,
        0.282318115234375,
        0.308563232421875
      ],
      "min": [
        -0.4130859375,
        -0.2213287353515625,
        -0.32574462890625
      ],
      "type": "VEC3"
    },
    {
      "bufferView": 2,
      "byteOffset": 786384,
      "componentType": 5126,
      "count": 65532,
      "max": [
        0.9999691843986511,
        1.0,
        0.9999691843986511
      ],
      "min": [
        -0.9999693036079407,
        -0.9998452663421631,
        -0.9999693036079407
      ],
      "type": "VEC3"
    },
    {
      "bufferView": 3,
      "componentType": 5126,
      "count": 65532,
      "max": [
        0.9999690651893616,
        0.9999603033065796,
        0.9997470378875732,
        1.0
      ],
      "min": [
        -0.9999687075614929,
        -0.9999212622642517,
        -0.9999467730522156,
        -1.0
      ],
      "type": "VEC4"
    },
    {
      "bufferView": 1,
      "componentType": 5126,
      "count": 65532,
      "max": [
        0.9990234375,
        1.0
      ],
      "min": [
        0.00732421875,
        0.0
      ],
      "type": "VEC2"
    },
    {
      "bufferView": 1,
      "byteOffset": 524256,
      "componentType": 5126,
      "count": 65532,
      "max": [
        0.9990234375,
        1.0
      ],
      "min": [
        0.00732421875,
        0.0
      ],
      "type": "VEC2"
    },
    {
      "bufferView": 1,
      "byteOffset": 1048512,
      "componentType": 5126,
      "count": 65532,
      "max": [
        0.9990234375,
        1.0
      ],
      "min": [
        0.00732421875,
        0.0
      ],
      "type": "VEC2"
    },
    {
      "bufferView": 0,
      "componentType": 5125,
      "count": 316890,
      "type": "SCALAR"
    },
    {
      "bufferView": 2,
      "byteOffset": 1572768,
      "componentType": 5126,
      "count": 65532,
      "max": [
        0.383819580078125,
        0.282318115234375,
        0.147491455078125
      ],
      "min": [
        -0.498321533203125,
        -0.263092041015625,
        -0.32574462890625
      ],
      "type": "VEC3"
    },
    {
      "bufferView": 2,
      "byteOffset": 2359152,
      "componentType": 5126,
      "count": 65532,
      "max": [
        0.9996902942657471,
        1.0,
        0.9998455047607422
      ],
      "min": [
        -0.9998453259468079,
        -0.9999691843986511,
        -0.9998764991760254
      ],
      "type": "VEC3"
    },
    {
      "bufferView": 3,
      "byteOffset": 1048512,
      "componentType": 5126,
      "count": 65532,
      "max": [
        0.9999569058418274,
        0.9998741149902344,
        0.9999456405639648,
        1.0
      ],
      "min": [
        -0.9999735355377197,
        -0.9999685883522034,
        -0.99998539686203,
        -1.0
      ],
      "type": "VEC4"
    },
    {
      "bufferView": 1,
      "byteOffset": 1572768,
      "componentType": 5126,
      "count": 65532,
      "max": [
        1.0,
        0.999755859375
      ],
      "min": [
        0.0,
        0.0
      ],
      "type": "VEC2"
    },
    {
      "bufferView": 1,
      "byteOffset": 2097024,
      "componentType": 5126,
      "count": 65532,
      "max": [
        1.0,
        0.999755859375
      ],
      "min": [
        0.0,
        0.0
      ],
      "type": "VEC2"
    },
    {
      "bufferView": 1,
      "byteOffset": 2621280,
      "componentType": 5126,
      "count": 65532,
      "max": [
        1.0,
        0.999755859375
      ],
      "min": [
        0.0,
        0.0
      ],
      "type": "VEC2"
    },
    {
      "bufferView": 0,
      "byteOffset": 1267560,
      "componentType": 5125,
      "count": 315744,
      "type": "SCALAR"
    },
    {
      "bufferView": 2,
      "byteOffset": 3145536,
      "componentType": 5126,
      "count": 65532,
      "max": [
        0.38433837890625,
        0.27667236328125,
        0.2001495361328125
      ],
      "min": [
        -0.45599365234375,
        0.043529510498046875,
        -0.325775146484375
      ],
      "type": "VEC3"
    },
    {
      "bufferView": 2,
      "byteOffset": 3931920,
      "componentType": 5126,
      "count": 65532,
      "max": [
        0.9999691247940063,
        0.9999693036079407,
        0.999938428401947
      ],
      "min": [
        -0.9998762607574463,
        -0.9999384880065918,
        -0.9999692440032959
      ],
      "type": "VEC3"
    },
    {
      "bufferView": 3,
      "byteOffset": 2097024,
      "componentType": 5126,
      "count": 65532,
      "max": [
        0.9999893307685852,
        0.9999781847000122,
        0.9999937415122986,
        1.0
      ],
      "min": [
        -0.9999687075614929,
        -0.9999934434890747,
        -0.9997193217277527,
        -1.0
      ],
      "type": "VEC4"
    },
    {
      "bufferView": 1,
      "byteOffset": 3145536,
      "componentType": 5126,
      "count": 65532,
      "max": [
        0.997314453125,
        0.996826171875
      ],
      "min": [
        0.0,
        0.0
      ],
      "type": "VEC2"
    },
    {
      "bufferView": 1,
      "byteOffset": 3669792,
      "componentType": 5126,
      "count": 65532,
      "max": [
        0.997314453125,
        0.996826171875
      ],
      "min": [
        0.0,
        0.0
      ],
      "type": "VEC2"
    },
    {
      "bufferView": 1,
      "byteOffset": 4194048,
      "componentType": 5126,
      "count": 65532,
      "max": [
        0.997314453125,
        0.996826171875
      ],
      "min": [
        0.0,
        0.0
      ],
      "type": "VEC2"
    },
    {
      "bufferView": 0,
      "byteOffset": 2530536,
      "componentType": 5125,
      "count": 280563,
      "type": "SCALAR"
    },
    {
      "bufferView": 2,
      "byteOffset": 4718304,
      "componentType": 5126,
      "count": 65532,
      "max": [
        0.384979248046875,
        0.2240447998046875,
        0.266998291015625
      ],
      "min": [
        -0.390533447265625,
        -0.028264999389648438,
        -0.3251953125
      ],
      "type": "VEC3"
    },
    {
      "bufferView": 2,
      "byteOffset": 5504688,
      "componentType": 5126,
      "count": 65532,
      "max": [
        0.9999380111694336,
        0.9999690651893616,
        0.9998449683189392
      ],
      "min": [
        -0.999968945980072,
        -0.9999691843986511,
        -1.0
      ],
      "type": "VEC3"
    },
    {
      "bufferView": 3,
      "byteOffset": 3145536,
      "componentType": 5126,
      "count": 65532,
      "max": [
        0.9999688267707825,
        0.9999687075614929,
        0.9998763799667358,
        1.0
      ],
      "min": [
        -0.9999887347221375,
        -0.999968945980072,
        -0.9999995827674866,
        -1.0
      ],
      "type": "VEC4"
    },
    {
      "bufferView": 1,
      "byteOffset": 4718304,
      "componentType": 5126,
      "count": 65532,
      "max": [
        0.993896484375,
        0.9970703125
      ],
      "min": [
        0.0029296875,
        0.001220703125
      ],
      "type": "VEC2"
    },
    {
      "bufferView": 1,
      "byteOffset": 5242560,
      "componentType": 5126,
      "count": 65532,
      "max": [
        0.993896484375,
        0.9970703125
      ],
      "min": [
        0.0029296875,
        0.001220703125
      ],
      "type": "VEC2"
    },
    {
      "bufferView": 1,
      "byteOffset": 5766816,
      "componentType": 5126,
      "count": 65532,
      "max": [
        0.993896484375,
        0.9970703125
      ],
      "min": [
        0.0029296875,
        0.001220703125
      ],
      "type": "VEC2"
    },
    {
      "bufferView": 0,
      "byteOffset": 3652788,
      "componentType": 5125,
      "count": 251547,
      "type": "SCALAR"
    },
    {
      "bufferView": 2,
      "byteOffset": 6291072,
      "componentType": 5126,
      "count": 65532,
      "max": [
        0.456634521484375,
        0.2456207275390625,
        0.266998291015625
      ],
      "min": [
        -0.355194091796875,
        -0.05995941162109375,
        -0.321319580078125
      ],
      "type": "VEC3"
    },
    {
      "bufferView": 2,
      "byteOffset": 7077456,
      "componentType": 5126,
      "count": 65532,
      "max": [
        0.9999691247940063,
        0.9999693036079407,
        0.9999692440032959
      ],
      "min": [
        -0.9998763799667358,
        -0.9998450875282288,
        -0.9999692440032959
      ],
      "type": "VEC3"
    },
    {
      "bufferView": 3,
      "byteOffset": 4194048,
      "componentType": 5126,
      "count": 65532,
      "max": [
        0.9994510412216187,
        0.9999610185623169,
        0.9999623894691467,
        1.0
      ],
      "min": [
        -0.9999669194221497,
        -0.9999591708183289,
        -0.9999995827674866,
        -1.0
      ],
      "type": "VEC4"
    },
    {
      "bufferView": 1,
      "byteOffset": 6291072,
      "componentType": 5126,
      "count": 65532,
      "max": [
        0.9970703125,
        0.998779296875
      ],
      "min": [
        0.0009765625,
        0.000244140625
      ],
      "type": "VEC2"
    },
    {
      "bufferView": 1,
      "byteOffset": 6815328,
      "componentType": 5126,
      "count": 65532,
      "max": [
        0.9970703125,
        0.998779296875
      ],
      "min": [
        0.0009765625,
        0.000244140625
      ],
      "type": "VEC2"
    },
    {
      "bufferView": 1,
      "byteOffset": 7339584,
      "componentType": 5126,
      "count": 65532,
      "max": [
        0.9970703125,
        0.998779296875
      ],
      "min": [
        0.0009765625,
        0.000244140625
      ],
      "type": "VEC2"
    },
    {
      "bufferView": 0,
      "byteOffset": 4658976,
      "componentType": 5125,
      "count": 255948,
      "type": "SCALAR"
    },
    {
      "bufferView": 2,
      "byteOffset": 7863840,
      "componentType": 5126,
      "count": 65532,
      "max": [
        0.49951171875,
        0.1456756591796875,
        0.26531982421875
      ],
      "min": [
        -0.28179931640625,
        -0.237335205078125,
        -0.32562255859375
      ],
      "type": "VEC3"
    },
    {
      "bufferView": 2,
      "byteOffset": 8650224,
      "componentType": 5126,
      "count": 65532,
      "max": [
        0.9999693036079407,
        1.0,
        0.9998766779899597
      ],
      "min": [
        -1.0,
        -0.9995046257972717,
        -1.0
      ],
      "type": "VEC3"
    },
    {
      "bufferView": 3,
      "byteOffset": 5242560,
      "componentType": 5126,
      "count": 65532,
      "max": [
        0.9989714026451111,
        0.9999979734420776,
        0.9996817111968994,
        1.0
      ],
      "min": [
        -0.9999446272850037,
        -0.9999439120292664,
        -0.9997827410697937,
        -1.0
      ],
      "type": "VEC4"
    },
    {
      "bufferView": 1,
      "byteOffset": 7863840,
      "componentType": 5126,
      "count": 65532,
      "max": [
        0.999755859375,
        0.987060546875
      ],
      "min": [
        0.01953125,
        0.007080078125
      ],
      "type": "VEC2"
    },
    {
      "bufferView": 1,
      "byteOffset": 8388096,
      "componentType": 5126,
      "count": 65532,
      "max": [
        0.999755859375,
        0.987060546875
      ],
      "min": [
        0.01953125,
        0.007080078125
      ],
      "type": "VEC2"
    },
    {
      "bufferView": 1,
      "byteOffset": 8912352,
      "componentType": 5126,
      "count": 65532,
      "max": [
        0.999755859375,
        0.987060546875
      ],
      "min": [
        0.01953125,
        0.007080078125
      ],
      "type": "VEC2"
    },
    {
      "bufferView": 0,
      "byteOffset": 5682768,
      "componentType": 5125,
      "count": 288465,
      "type": "SCALAR"
    },
    {
      "bufferView": 2,
      "byteOffset": 9436608,
      "componentType": 5126,
      "count": 65532,
      "max": [
        0.385040283203125,
        -0.036289215087890625,
        0.25933837890625
      ],
      "min": [
        -0.1623077392578125,
        -0.275604248046875,
        -0.3251953125
      ],
      "type": "VEC3"
    },
    {
      "bufferView": 2,
      "byteOffset": 10222992,
      "componentType": 5126,
      "count": 65532,
      "max": [
        0.9999693036079407,
        0.9999690651893616,
        0.9998454451560974
      ],
      "min": [
        -0.9999690651893616,
        -1.0,
        -1.0
      ],
      "type": "VEC3"
    },
    {
      "bufferView": 3,
      "byteOffset": 6291072,
      "componentType": 5126,
      "count": 65532,
      "max": [
        0.9998770356178284,
        0.999992847442627,
        0.9995943307876587,
        1.0
      ],
      "min": [
        -0.9999635219573975,
        -0.9998750686645508,
        -0.9999823570251465,
        -1.0
      ],
      "type": "VEC4"
    },
    {
      "bufferView": 1,
      "byteOffset": 9436608,
      "componentType": 5126,
      "count": 65532,
      "max": [
        0.986328125,
        0.97900390625
      ],
      "min": [
        0.0,
        0.007080078125
      ],
      "type": "VEC2"
    },
    {
      "bufferView": 1,
      "byteOffset": 9960864,
      "componentType": 5126,
      "count": 65532,
      "max": [
        0.986328125,
        0.97900390625
      ],
      "min": [
        0.0,
        0.007080078125
      ],
      "type": "VEC2"
    },
    {
      "bufferView": 1,
      "byteOffset": 10485120,
      "componentType": 5126,
      "count": 65532,
      "max": [
        0.986328125,
        0.97900390625
      ],
      "min": [
        0.0,
        0.007080078125
      ],
      "type": "VEC2"
    },
    {
      "bufferView": 0,
      "byteOffset": 6836628,
      "componentType": 5125,
      "count": 301218,
      "type": "SCALAR"
    },
    {
      "bufferView": 2,
      "byteOffset": 11009376,
      "componentType": 5126,
      "count": 65532,
      "max": [
        0.38427734375,
        -0.062774658203125,
        0.257232666015625
      ],
      "min": [
        -0.11121368408203125,
        -0.274169921875,
        -0.32562255859375
      ],
      "type": "VEC3"
    },
    {
      "bufferView": 2,
      "byteOffset": 11795760,
      "componentType": 5126,
      "count": 65532,
      "max": [
        0.9995975494384766,
        0.9999691843986511,
        0.9998455047607422
      ],
      "min": [
        -0.9999693036079407,
        -0.9999691843986511,
        -0.9998764395713806
      ],
      "type": "VEC3"
    },
    {
      "bufferView": 3,
      "byteOffset": 7339584,
      "componentType": 5126,
      "count": 65532,
      "max": [
        0.9998425245285034,
        0.9999683499336243,
        0.9998863339424133,
        1.0
      ],
      "min": [
        -1.0,
        -0.9998942017555237,
        -0.9997742176055908,
        -1.0
      ],
      "type": "VEC4"
    },
    {
      "bufferView": 1,
      "byteOffset": 11009376,
      "componentType": 5126,
      "count": 65532,
      "max": [
        0.971923828125,
        0.994140625
      ],
      "min": [
        0.0,
        0.001220703125
      ],
      "type": "VEC2"
    },
    {
      "bufferView": 1,
      "byteOffset": 11533632,
      "componentType": 5126,
      "count": 65532,
      "max": [
        0.971923828125,
        0.994140625
      ],
      "min": [
        0.0,
        0.001220703125
      ],
      "type": "VEC2"
    },
    {
      "bufferView": 1,
      "byteOffset": 12057888,
      "componentType": 5126,
      "count": 65532,
      "max": [
        0.971923828125,
        0.994140625
      ],
      "min": [
        0.0,
        0.001220703125
      ],
      "type": "VEC2"
    },
    {
      "bufferView": 0,
      "byteOffset": 8041500,
      "componentType": 5125,
      "count": 296658,
      "type": "SCALAR"
    },
    {
      "bufferView": 2,
      "byteOffset": 12582144,
      "componentType": 5126,
      "count": 65532,
      "max": [
        0.392791748046875,
        0.028329849243164063,
        0.266815185546875
      ],
      "min": [
        -0.19293212890625,
        -0.27471923828125,
        -0.32562255859375
      ],
      "type": "VEC3"
    },
    {
      "bufferView": 2,
      "byteOffset": 13368528,
      "componentType": 5126,
      "count": 65532,
      "max": [
        0.9998462200164795,
        0.9999691247940063,
        1.0
      ],
      "min": [
        -0.9999690055847168,
        -0.999938428401947,
        -1.0
      ],
      "type": "VEC3"
    },
    {
      "bufferView": 3,
      "byteOffset": 8388096,
      "componentType": 5126,
      "count": 65532,
      "max": [
        0.9999960660934448,
        1.0,
        0.9998727440834045,
        1.0
      ],
      "min": [
        -0.9999961256980896,
        -0.9999876022338867,
        -0.9998103380203247,
        -1.0
      ],
      "type": "VEC4"
    },
    {
      "bufferView": 1,
      "byteOffset": 12582144,
      "componentType": 5126,
      "count": 65532,
      "max": [
        0.998779296875,
        0.9931640625
      ],
      "min": [
        0.0,
        0.0
      ],
      "type": "VEC2"
    },
    {
      "bufferView": 1,
      "byteOffset": 13106400,
      "componentType": 5126,
      "count": 65532,
      "max": [
        0.998779296875,
        0.9931640625
      ],
      "min": [
        0.0,
        0.0
      ],
      "type": "VEC2"
    },
    {
      "bufferView": 1,
      "byteOffset": 13630656,
      "componentType": 5126,
      "count": 65532,
      "max": [
        0.998779296875,
        0.9931640625
      ],
      "min": [
        0.0,
        0.0
      ],
      "type": "VEC2"
    },
    {
      "bufferView": 0,
      "byteOffset": 9228132,
      "componentType": 5125,
      "count": 232227,
      "type": "SCALAR"
    },
    {
      "bufferView": 2,
      "byteOffset": 14154912,
      "componentType": 5126,
      "count": 65532,
      "max": [
        0.499603271484375,
        0.115509033203125,
        0.292327880859375
      ],
      "min": [
        -0.2170867919921875,
        -0.11197662353515625,
        -0.259063720703125
      ],
      "type": "VEC3"
    },
    {
      "bufferView": 2,
      "byteOffset": 14941296,
      "componentType": 5126,
      "count": 65532,
      "max": [
        1.0,
        0.990527868270874,
        1.0
      ],
      "min": [
        -0.9999691247940063,
        -1.0,
        -1.0
      ],
      "type": "VEC3"
    },
    {
      "bufferView": 3,
      "byteOffset": 9436608,
      "componentType": 5126,
      "count": 65532,
      "max": [
        0.9999235272407532,
        1.0,
        0.9999623894691467,
        1.0
      ],
      "min": [
        -0.9998454451560974,
        -0.9999997615814209,
        -0.9999674558639526,
        -1.0
      ],
      "type": "VEC4"
    },
    {
      "bufferView": 1,
      "byteOffset": 14154912,
      "componentType": 5126,
      "count": 65532,
      "max": [
        0.999755859375,
        1.0
      ],
      "min": [
        0.0,
        0.004150390625
      ],
      "type": "VEC2"
    },
    {
      "bufferView": 1,
      "byteOffset": 14679168,
      "componentType": 5126,
      "count": 65532,
      "max": [
        0.999755859375,
        1.0
      ],
      "min": [
        0.0,
        0.004150390625
      ],
      "type": "VEC2"
    },
    {
      "bufferView": 1,
      "byteOffset": 15203424,
      "componentType": 5126,
      "count": 65532,
      "max": [
        0.999755859375,
        1.0
      ],
      "min": [
        0.0,
        0.004150390625
      ],
      "type": "VEC2"
    },
    {
      "bufferView": 0,
      "byteOffset": 10157040,
      "componentType": 5125,
      "count": 267675,
      "type": "SCALAR"
    },
    {
      "bufferView": 2,
      "byteOffset": 15727680,
      "componentType": 5126,
      "count": 23135,
      "max": [
        0.49761962890625,
        0.114013671875,
        0.32342529296875
      ],
      "min": [
        -0.254241943359375,
        -0.027925491333007813,
        -0.259063720703125
      ],
      "type": "VEC3"
    },
    {
      "bufferView": 2,
      "byteOffset": 16005300,
      "componentType": 5126,
      "count": 23135,
      "max": [
        0.9992255568504333,
        0.9991023540496826,
        0.9999696612358093
      ],
      "min": [
        -0.9998454451560974,
        -0.9995046257972717,
        -0.999968945980072
      ],
      "type": "VEC3"
    },
    {
      "bufferView": 3,
      "byteOffset": 10485120,
      "componentType": 5126,
      "count": 23135,
      "max": [
        0.999451756477356,
        0.9999693036079407,
        0.9998583197593689,
        1.0
      ],
      "min": [
        -0.999499499797821,
        -0.9999884963035583,
        -0.9999659061431885,
        -1.0
      ],
      "type": "VEC4"
    },
    {
      "bufferView": 1,
      "byteOffset": 15727680,
      "componentType": 5126,
      "count": 23135,
      "max": [
        0.993896484375,
        0.999755859375
      ],
      "min": [
        0.0,
        0.000244140625
      ],
      "type": "VEC2"
    },
    {
      "bufferView": 1,
      "byteOffset": 15912760,
      "componentType": 5126,
      "count": 23135,
      "max": [
        0.993896484375,
        0.999755859375
      ],
      "min": [
        0.0,
        0.000244140625
      ],
      "type": "VEC2"
    },
    {
      "bufferView": 1,
      "byteOffset": 16097840,
      "componentType": 5126,
      "count": 23135,
      "max": [
        0.993896484375,
        0.999755859375
      ],
      "min": [
        0.0,
        0.000244140625
      ],
      "type": "VEC2"
    },
    {
      "bufferView": 0,
      "byteOffset": 11227740,
      "componentType": 5125,
      "count": 71502,
      "type": "SCALAR"
    }
  ],
  "asset": {
    "extras": {
      "author": "Pigcraft (https://sketchfab.com/s8819296)",
      "license": "CC-BY-4.0 (http://creativecommons.org/licenses/by/4.0/)",
      "source": "https://sketchfab.com/3d-models/giant-armored-turtle-monster-f72a396176d047d0826a0f9430bfcad8",
      "title": "Giant Armored Turtle Monster"
    },
    "generator": "Sketchfab-16.95.0",
    "version": "2.0"
  },
  "bufferViews": [
    {
      "buffer": 0,
      "byteLength": 11513748,
      "name": "floatBufferViews",
      "target": 34963
    },
    {
      "buffer": 0,
      "byteLength": 16282920,
      "byteOffset": 11513748,
      "byteStride": 8,
      "name": "floatBufferViews",
      "target": 34962
    },
    {
      "buffer": 0,
      "byteLength": 16282920,
      "byteOffset": 27796668,
      "byteStride": 12,
      "name": "floatBufferViews",
      "target": 34962
    },
    {
      "buffer": 0,
      "byteLength": 10855280,
      "byteOffset": 44079588,
      "byteStride": 16,
      "name": "floatBufferViews",
      "target": 34962
    }
  ],
  "buffers": [
    {
      "byteLength": 54934868,
      "uri": "scene.bin"
    }
  ],
  "images": [
    {
      "uri": "textures/tripo_mat_087c6ce7_baseColor.jpeg"
    },
    {
      "uri": "textures/tripo_mat_087c6ce7_metallicRoughness.png"
    },
    {
      "uri": "textures/tripo_mat_087c6ce7_normal.png"
    }
  ],
  "materials": [
    {
      "doubleSided": true,
      "name": "tripo_mat_087c6ce7",
      "normalTexture": {
        "index": 2,
        "texCoord": 1
      },
      "pbrMetallicRoughness": {
        "baseColorTexture": {
          "index": 0
        },
        "metallicRoughnessTexture": {
          "index": 1
        }
      }
    }
  ],
  "meshes": [
    {
      "name": "tripo_node_087c6ce7_tripo_mat_087c6ce7_0",
      "primitives": [
        {
          "attributes": {
            "NORMAL": 1,
            "POSITION": 0,
            "TANGENT": 2,
            "TEXCOORD_0": 3,
            "TEXCOORD_1": 4,
            "TEXCOORD_2": 5
          },
          "indices": 6,
          "material": 0,
          "mode": 4
        }
      ]
    },
    {
      "name": "tripo_node_087c6ce7_tripo_mat_087c6ce7_0",
      "primitives": [
        {
          "attributes": {
            "NORMAL": 8,
            "POSITION": 7,
            "TANGENT": 9,
            "TEXCOORD_0": 10,
            "TEXCOORD_1": 11,
            "TEXCOORD_2": 12
          },
          "indices": 13,
          "material": 0,
          "mode": 4
        }
      ]
    },
    {
      "name": "tripo_node_087c6ce7_tripo_mat_087c6ce7_0",
      "primitives": [
        {
          "attributes": {
            "NORMAL": 15,
            "POSITION": 14,
            "TANGENT": 16,
            "TEXCOORD_0": 17,
            "TEXCOORD_1": 18,
            "TEXCOORD_2": 19
          },
          "indices": 20,
          "material": 0,
          "mode": 4
        }
      ]
    },
    {
      "name": "tripo_node_087c6ce7_tripo_mat_087c6ce7_0",
      "primitives": [
        {
          "attributes": {
            "NORMAL": 22,
            "POSITION": 21,
            "TANGENT": 23,
            "TEXCOORD_0": 24,
            "TEXCOORD_1": 25,
            "TEXCOORD_2": 26
          },
          "indices": 27,
          "material": 0,
          "mode": 4
        }
      ]
    },
    {
      "name": "tripo_node_087c6ce7_tripo_mat_087c6ce7_0",
      "primitives": [
        {
          "attributes": {
            "NORMAL": 29,
            "POSITION": 28,
            "TANGENT": 30,
            "TEXCOORD_0": 31,
            "TEXCOORD_1": 32,
            "TEXCOORD_2": 33
          },
          "indices": 34,
          "material": 0,
          "mode": 4
        }
      ]
    },
    {
      "name": "tripo_node_087c6ce7_tripo_mat_087c6ce7_0",
      "primitives": [
        {
          "attributes": {
            "NORMAL": 36,
            "POSITION": 35,
            "TANGENT": 37,
            "TEXCOORD_0": 38,
            "TEXCOORD_1": 39,
            "TEXCOORD_2": 40
          },
          "indices": 41,
          "material": 0,
          "mode": 4
        }
      ]
    },
    {
      "name": "tripo_node_087c6ce7_tripo_mat_087c6ce7_0",
      "primitives": [
        {
          "attributes": {
            "NORMAL": 43,
            "POSITION": 42,
            "TANGENT": 44,
            "TEXCOORD_0": 45,
            "TEXCOORD_1": 46,
            "TEXCOORD_2": 47
          },
          "indices": 48,
          "material": 0,
          "mode": 4
        }
      ]
    },
    {
      "name": "tripo_node_087c6ce7_tripo_mat_087c6ce7_0",
      "primitives": [
        {
          "attributes": {
            "NORMAL": 50,
            "POSITION": 49,
            "TANGENT": 51,
            "TEXCOORD_0": 52,
            "TEXCOORD_1": 53,
            "TEXCOORD_2": 54
          },
          "indices": 55,
          "material": 0,
          "mode": 4
        }
      ]
    },
    {
      "name": "tripo_node_087c6ce7_tripo_mat_087c6ce7_0",
      "primitives": [
        {
          "attributes": {
            "NORMAL": 57,
            "POSITION": 56,
            "TANGENT": 58,
            "TEXCOORD_0": 59,
            "TEXCOORD_1": 60,
            "TEXCOORD_2": 61
          },
          "indices": 62,
          "material": 0,
          "mode": 4
        }
      ]
    },
    {
      "name": "tripo_node_087c6ce7_tripo_mat_087c6ce7_0",
      "primitives": [
        {
          "attributes": {
            "NORMAL": 64,
            "POSITION": 63,
            "TANGENT": 65,
            "TEXCOORD_0": 66,
            "TEXCOORD_1": 67,
            "TEXCOORD_2": 68
          },
          "indices": 69,
          "material": 0,
          "mode": 4
        }
      ]
    },
    {
      "name": "tripo_node_087c6ce7_tripo_mat_087c6ce7_0",
      "primitives": [
        {
          "attributes": {
            "NORMAL": 71,
            "POSITION": 70,
            "TANGENT": 72,
            "TEXCOORD_0": 73,
            "TEXCOORD_1": 74,
            "TEXCOORD_2": 75
          },
          "indices": 76,
          "material": 0,
          "mode": 4
        }
      ]
    }
  ],
  "nodes": [
    {
      "children": [
        1
      ],
      "matrix": [
        1.0,
        0.0,
        0.0,
        0.0,
        0.0,
        2.220446049250313e-16,
        -1.0,
        0.0,
        0.0,
        1.0,
        2.220446049250313e-16,
        0.0,
        0.0,
        0.0,
        0.0,
        1.0
      ],
      "name": "Sketchfab_model"
    },
    {
      "children": [
        2
      ],
      "matrix": [
        1.0,
        0.0,
        0.0,
        0.0,
        0.0,
        0.0,
        1.0,
        0.0,
        0.0,
        -1.0,
        0.0,
        0.0,
        0.0,
        0.0,
        0.0,
        1.0
      ],
      "name": "bfec0c9895694f689a562a6b702bb276.fbx"
    },
    {
      "children": [
        3
      ],
      "name": "RootNode"
    },
    {
      "children": [
        4,
        5,
        6,
        7,
        8,
        9,
        10,
        11,
        12,
        13,
        14
      ],
      "matrix": [
        1.0,
        0.0,
        0.0,
        0.0,
        0.0,
        -4.371139006309477e-08,
        -0.999999999999999,
        0.0,
        0.0,
        0.999999999999999,
        -4.371139006309477e-08,
        0.0,
        0.0,
        0.0,
        0.0,
        1.0
      ],
      "name": "tripo_node_087c6ce7"
    },
    {
      "mesh": 0,
      "name": "tripo_node_087c6ce7_tripo_mat_087c6ce7_0"
    },
    {
      "mesh": 1,
      "name": "tripo_node_087c6ce7_tripo_mat_087c6ce7_0"
    },
    {
      "mesh": 2,
      "name": "tripo_node_087c6ce7_tripo_mat_087c6ce7_0"
    },
    {
      "mesh": 3,
      "name": "tripo_node_087c6ce7_tripo_mat_087c6ce7_0"
    },
    {
      "mesh": 4,
      "name": "tripo_node_087c6ce7_tripo_mat_087c6ce7_0"
    },
    {
      "mesh": 5,
      "name": "tripo_node_087c6ce7_tripo_mat_087c6ce7_0"
    },
    {
      "mesh": 6,
      "name": "tripo_node_087c6ce7_tripo_mat_087c6ce7_0"
    },
    {
      "mesh": 7,
      "name": "tripo_node_087c6ce7_tripo_mat_087c6ce7_0"
    },
    {
      "mesh": 8,
      "name": "tripo_node_087c6ce7_tripo_mat_087c6ce7_0"
    },
    {
      "mesh": 9,
      "name": "tripo_node_087c6ce7_tripo_mat_087c6ce7_0"
    },
    {
      "mesh": 10,
      "name": "tripo_node_087c6ce7_tripo_mat_087c6ce7_0"
    }
  ],
  "samplers": [
    {
      "magFilter": 9729,
      "minFilter": 9987,
      "wrapS": 10497,
      "wrapT": 10497
    }
  ],
  "scene": 0,
  "scenes": [
    {
      "name": "Sketchfab_Scene",
      "nodes": [
        0
      ]
    }
  ],
  "textures": [
    {
      "sampler": 0,
      "source": 0
    },
    {
      "sampler": 0,
      "source": 1
    },
    {
      "sampler": 0,
      "source": 2
    }
  ]
}
