{
  "accessors": [
    {
      "bufferView": 3,
      "componentType": 5126,
      "count": 1174,
      "max": [
        0.5315994620323181,
        0.9781857132911682,
        0.5567123293876648
      ],
      "min": [
        -0.5315994024276733,
        0.3002104163169861,
        -0.5561735033988953
      ],
      "type": "VEC3"
    },
    {
      "bufferView": 3,
      "byteOffset": 14088,
      "componentType": 5126,
      "count": 1174,
      "max": [
        0.9992988109588623,
        0.9981113076210022,
        0.9994996786117554
      ],
      "min": [
        -0.9992988109588623,
        -0.9997166991233826,
        -0.985301673412323
      ],
      "type": "VEC3"
    },
    {
      "bufferView": 2,
      "componentType": 5126,
      "count": 1174,
      "max": [
        0.9861568808555603,
        1.975428819656372
      ],
      "min": [
        0.02600114978849888,
        1.0249121189117432
      ],
      "type": "VEC2"
    },
    {
      "bufferView": 1,
      "componentType": 5125,
      "count": 5994,
      "type": "SCALAR"
    },
    {
      "bufferView": 5,
      "componentType": 5126,
      "count": 41,
      "max": [
        1.0,
        0.920592188835144,
        0.8951526880264282,
        0.0,
        0.9507253766059875,
        1.0,
        0.563822865486145,
        0.0,
        0.9999445676803589,
        0.9248453974723816,
        1.0,
        0.0,
        0.9482116103172302,
        0.8218706846237183,
        0.38854923844337463,
        1.0
      ],
      "min": [
        -0.03344419226050377,
        -0.8819986581802368,
        -1.0,
        0.0,
        -0.9507253766059875,
        -1.0,
        -0.5638226270675659,
        0.0,
        -0.9478155374526978,
        -0.940299928188324,
        -0.9683049917221069,
        0.0,
        -0.9482110142707825,
        -0.8218708634376526,
        -0.38854870200157166,
        1.0
      ],
      "type": "MAT4"
    },
    {
      "bufferView": 0,
      "componentType": 5123,
      "count": 1174,
      "type": "VEC4"
    },
    {
      "bufferView": 4,
      "componentType": 5126,
      "count": 1174,
      "max": [
        1.0,
        0.5,
        0.27175503969192505,
        0.16800639033317566
      ],
      "min": [
        0.3788943588733673,
        0.0,
        0.0,
        0.0
      ],
      "type": "VEC4"
    }
  ],
  "asset": {
    "extras": {
      "author": "spongebob.evolution (https://sketchfab.com/spongebob.evolution)",
      "license": "CC-BY-4.0 (http://creativecommons.org/licenses/by/4.0/)",
      "source": "https://sketchfab.com/3d-models/squirt-3d-model-029b2a81c93a4aed808d9d3189299257",
      "title": "Squirt 3D Model"
    },
    "generator": "Sketchfab-17.1.0",
    "version": "2.0"
  },
  "bufferViews": [
    {
      "buffer": 0,
      "byteLength": 9392,
      "byteStride": 8,
      "name": "shortBufferViews",
      "target": 34962
    },
    {
      "buffer": 0,
      "byteLength": 23976,
      "byteOffset": 9392,
      "name": "floatBufferViews",
      "target": 34963
    },
    {
      "buffer": 0,
      "byteLength": 9392,
      "byteOffset": 33368,
      "byteStride": 8,
      "name": "floatBufferViews",
      "target": 34962
    },
    {
      "buffer": 0,
      "byteLength": 28176,
      "byteOffset": 42760,
      "byteStride": 12,
      "name": "floatBufferViews",
      "target": 34962
    },
    {
      "buffer": 0,
      "byteLength": 18784,
      "byteOffset": 70936,
      "byteStride": 16,
      "name": "floatBufferViews",
      "target": 34962
    },
    {
      "buffer": 0,
      "byteLength": 2624,
      "byteOffset": 89720,
      "name": "floatBufferViews"
    }
  ],
  "buffers": [
    {
      "byteLength": 92344,
      "uri": "scene.bin"
    }
  ],
  "images": [
    {
      "uri": "textures/MAT_Squirt_baseColor.png"
    }
  ],
  "materials": [
    {
      "doubleSided": true,
      "name": "MAT_Squirt",
      "pbrMetallicRoughness": {
        "baseColorTexture": {
          "index": 0
        },
        "metallicFactor": 0.0,
        "roughnessFactor": 0.9577051494623774
      }
    }
  ],
  "meshes": [
    {
      "name": "Turtle_Mesh_MAT_Squirt_0",
      "primitives": [
        {
          "attributes": {
            "JOINTS_0": 5,
            "NORMAL": 1,
            "POSITION": 0,
            "TEXCOORD_0": 2,
            "WEIGHTS_0": 6
          },
          "indices": 3,
          "material": 0,
          "mode": 4
        }
      ]
    }
  ],
  "nodes": [
    {
      "children": [
        1
      ],
      "matrix": [
        1.0,
        0.0,
        0.0,
        0.0,
        0.0,
        2.220446049250313e-16,
        -1.0,
        0.0,
        0.0,
        1.0,
        2.220446049250313e-16,
        0.0,
        0.0,
        0.0,
        0.0,
        1.0
      ],
      "name": "Sketchfab_model"
    },
    {
      "children": [
        2
      ],
      "matrix": [
        0.009999999776482582,
        0.0,
        0.0,
        0.0,
        0.0,
        0.0,
        0.009999999776482582,
        0.0,
        0.0,
        -0.009999999776482582,
        0.0,
        0.0,
        0.0,
        0.0,
        0.0,
        1.0
      ],
      "name": "Squirt_HD.fbx"
    },
    {
      "children": [
        3
      ],
      "name": "RootNode"
    },
    {
      "children": [
        4,
        6,
        5
      ],
      "name": "Object_3"
    },
    {
      "children": [
        7
      ],
      "name": "_rootJoint"
    },
    {
      "matrix": [
        0.9999999999999999,
        2.7755575615628914e-17,
        0.0,
        0.0,
        -2.7755575615628914e-17,
        0.9999999999999999,
        -1.3877787807814457e-17,
        0.0,
        -3.851859888774473e-34,
        1.387778780781446e-17,
        1.0,
        0.0,
        2.7755575615628914e-17,
        1.1102230246251565e-16,
        0.0,
        1.0
      ],
      "name": "Object_5"
    },
    {
      "mesh": 0,
      "name": "Object_6",
      "skin": 0
    },
    {
      "children": [
        8
      ],
      "name": "Squirt_HD_033"
    },
    {
      "children": [
        9
      ],
      "name": "Squirt_root_07"
    },
    {
      "children": [
        10,
        32,
        36,
        39,
        43,
        44
      ],
      "name": "Squirt_hip_03",
      "rotation": [
        0.0037228718865662813,
        -0.7070969343185425,
        -0.0037228718865662813,
        0.7070969939231873
      ],
      "translation": [
        2.454279068827093e-34,
        0.7644373178482056,
        -0.06846644729375839
      ]
    },
    {
      "children": [
        11
      ],
      "name": "Squirt_Neck_01_014",
      "rotation": [
        1.0973184445865128e-17,
        -1.6453572648767421e-15,
        0.04791191592812538,
        0.9988516569137573
      ],
      "translation": [
        0.18582110106945038,
        -0.08715684711933136,
        -5.228405628738143e-16
      ]
    },
    {
      "children": [
        12
      ],
      "name": "Squirt_Neck_02_034",
      "rotation": [
        -1.103228861821441e-15,
        1.291405595504338e-15,
        0.2124093770980835,
        0.9771807789802551
      ],
      "scale": [
        0.9999999403953552,
        0.9999999403953552,
        1.0
      ],
      "translation": [
        0.0726243257522583,
        3.0901976533215247e-09,
        3.967490148840526e-16
      ]
    },
    {
      "children": [
        13,
        14,
        15,
        18,
        19,
        20,
        21,
        22,
        23,
        24,
        28,
        29,
        30,
        31
      ],
      "name": "Squirt_Head_04",
      "rotation": [
        -1.7336420531311798e-16,
        -7.274112486739038e-16,
        -0.24611246585845947,
        0.9692413806915283
      ],
      "translation": [
        0.09660160541534424,
        -1.4620703758794207e-08,
        1.5027902378486147e-16
      ]
    },
    {
      "name": "Squirt_Lip_Mid_Lf_00",
      "rotation": [
        0.05542813614010811,
        0.2804587781429291,
        -0.1857917606830597,
        0.9400808811187744
      ],
      "scale": [
        0.9999999403953552,
        1.0,
        1.0
      ],
      "translation": [
        0.23024168610572815,
        -0.056371983140707016,
        -0.031991831958293915
      ]
    },
    {
      "name": "Squirt_Lip_Mid_Rt_05",
      "rotation": [
        -0.2804587781429291,
        0.05542805790901184,
        0.9400809407234192,
        0.1857915222644806
      ],
      "scale": [
        0.9999999403953552,
        0.9999999403953552,
        1.0
      ],
      "translation": [
        0.23024126887321472,
        -0.056372035294771194,
        0.03199195861816406
      ]
    },
    {
      "children": [
        16,
        17
      ],
      "name": "Squirt_lip_corn_offset_010",
      "rotation": [
        2.0356824877679365e-16,
        -5.407849558613966e-16,
        -0.1867843121290207,
        0.9824009537696838
      ],
      "translation": [
        0.15070779621601105,
        -0.0367138497531414,
        1.169158094787453e-15
      ]
    },
    {
      "name": "Squirt_Lip_Corner_Rt_02",
      "rotation": [
        -0.33069583773612976,
        -0.14668744802474976,
        0.9322566986083984,
        0.004525412805378437
      ],
      "scale": [
        0.9999999403953552,
        1.0,
        1.0
      ],
      "translation": [
        0.05228068679571152,
        -0.0028859777376055717,
        0.05254755914211273
      ]
    },
    {
      "name": "Squirt_Lip_Corner_Lf_012",
      "rotation": [
        -0.1466875672340393,
        0.3306958079338074,
        -0.004525099880993366,
        0.9322566986083984
      ],
      "scale": [
        0.9999999403953552,
        1.0,
        1.0000001192092896
      ],
      "translation": [
        0.05228138342499733,
        -0.0028857789002358913,
        -0.05254758894443512
      ]
    },
    {
      "name": "Squirt_Eyelid_Down_Lf_011",
      "rotation": [
        -0.3557376265525818,
        0.4985634684562683,
        -0.4694276750087738,
        0.6360212564468384
      ],
      "translation": [
        0.10520457476377487,
        0.052655018866062164,
        -0.10305999964475632
      ]
    },
    {
      "name": "Squirt_Eye_Lf_018",
      "rotation": [
        0.002564982743933797,
        0.31910446286201477,
        -0.007617557886987925,
        0.9476854801177979
      ],
      "scale": [
        0.9999999403953552,
        1.0,
        1.0
      ],
      "translation": [
        0.10520457476377487,
        0.052655018866062164,
        -0.10305999964475632
      ]
    },
    {
      "name": "Squirt_Eyelid_Up_Rt_023",
      "rotation": [
        -0.5120598673820496,
        0.336019903421402,
        0.6677910685539246,
        -0.4230135381221771
      ],
      "scale": [
        0.9999999403953552,
        0.9999998807907104,
        1.0
      ],
      "translation": [
        0.10520429164171219,
        0.05265502631664276,
        0.10306010395288467
      ]
    },
    {
      "name": "Squirt_teeth_Down_025",
      "rotation": [
        -2.190168856550708e-15,
        -1.6785017699819213e-15,
        0.5677065849304199,
        0.8232309818267822
      ],
      "translation": [
        0.19922898709774017,
        -0.05401413142681122,
        1.2100044587237788e-15
      ]
    },
    {
      "name": "Squirt_Eyebrow_Lf_026",
      "rotation": [
        -0.21529768407344818,
        0.15139871835708618,
        0.5296987891197205,
        0.806315541267395
      ],
      "scale": [
        0.9999999403953552,
        1.0,
        1.0
      ],
      "translation": [
        0.15204598009586334,
        0.19914211332798004,
        -0.1013244017958641
      ]
    },
    {
      "name": "Squirt_Eye_Rt_029",
      "rotation": [
        -0.31910446286201477,
        0.002565053291618824,
        0.9476854801177979,
        0.007617767434567213
      ],
      "scale": [
        0.9999999403953552,
        1.0,
        1.0
      ],
      "translation": [
        0.10520429164171219,
        0.05265502631664276,
        0.10306010395288467
      ]
    },
    {
      "children": [
        25,
        26,
        27
      ],
      "name": "Squirt_Jaw_030",
      "rotation": [
        -7.411640461824391e-16,
        2.3419209880904918e-18,
        -0.20943526923656464,
        0.9778225421905518
      ],
      "scale": [
        0.9999999403953552,
        0.9999999403953552,
        1.0
      ],
      "translation": [
        0.10757280141115189,
        -0.02426748350262642,
        8.496065509854141e-16
      ]
    },
    {
      "name": "Squirt_Down_Mid_Lf_06",
      "rotation": [
        0.010895496234297752,
        0.20171600580215454,
        -0.10131397843360901,
        0.9741290807723999
      ],
      "scale": [
        1.0,
        0.9999999403953552,
        1.0
      ],
      "translation": [
        0.1151454895734787,
        0.0009132186532951891,
        -0.030434729531407356
      ]
    },
    {
      "name": "Squirt_Down_Mid_Rt_013",
      "rotation": [
        -0.20171591639518738,
        0.010895481333136559,
        0.9741290807723999,
        0.10131395608186722
      ],
      "scale": [
        1.0,
        0.9999999403953552,
        1.0
      ],
      "translation": [
        0.11514518409967422,
        0.0009130872786045074,
        0.03043481893837452
      ]
    },
    {
      "name": "Squirt_Lip_Centre_Down_027",
      "rotation": [
        6.563683719261991e-16,
        1.1022143281088671e-16,
        -0.13180886209011078,
        0.9912752509117126
      ],
      "translation": [
        0.12178028374910355,
        -0.0010107248090207577,
        1.7131228652724016e-15
      ]
    },
    {
      "name": "Squirt_Eyelid_Up_Lf_031",
      "rotation": [
        0.3360198736190796,
        0.5120598673820496,
        0.4230135381221771,
        0.6677910685539246
      ],
      "scale": [
        0.9999999403953552,
        0.9999999403953552,
        1.0
      ],
      "translation": [
        0.10520457476377487,
        0.052655018866062164,
        -0.10305999964475632
      ]
    },
    {
      "name": "Squirt_Lip_Centre_Up_032",
      "rotation": [
        5.881823784909055e-16,
        4.091529124240854e-17,
        -0.19388362765312195,
        0.9810245633125305
      ],
      "translation": [
        0.24233785271644592,
        -0.06280548125505447,
        -1.170935805185503e-15
      ]
    },
    {
      "name": "Squirt_Eyelid_Down_Rt_036",
      "rotation": [
        -0.49856340885162354,
        -0.3557376265525818,
        0.6360211968421936,
        0.46942761540412903
      ],
      "scale": [
        1.0,
        0.9999999403953552,
        1.0000001192092896
      ],
      "translation": [
        0.10520429164171219,
        0.05265502631664276,
        0.10306010395288467
      ]
    },
    {
      "name": "Squirt_Eyebrow_Rt_037",
      "rotation": [
        0.15139873325824738,
        0.2152976244688034,
        -0.806315541267395,
        0.5296986103057861
      ],
      "scale": [
        1.0,
        0.9999999403953552,
        1.0
      ],
      "translation": [
        0.15204598009586334,
        0.19914288818836212,
        0.10132429748773575
      ]
    },
    {
      "children": [
        33
      ],
      "name": "Squirt_FrontFin_Lf_01_016",
      "rotation": [
        -0.3003646731376648,
        0.24749423563480377,
        -0.20993736386299133,
        0.8969135880470276
      ],
      "translation": [
        0.13625779747962952,
        -0.0928787812590599,
        -0.10947270691394806
      ]
    },
    {
      "children": [
        34
      ],
      "name": "Turtle_FrontFin_Lf_02_08",
      "rotation": [
        -3.272998227998869e-08,
        0.5246717929840088,
        4.839892042696192e-08,
        0.8513045907020569
      ],
      "translation": [
        0.16881249845027924,
        -6.006925445944944e-08,
        8.850881805244626e-09
      ]
    },
    {
      "children": [
        35
      ],
      "name": "Turtle_FrontFin_Lf_03_024",
      "rotation": [
        -2.8398174922728003e-09,
        0.19233204424381256,
        1.3498967277314478e-08,
        0.9813299179077148
      ],
      "translation": [
        0.1774212270975113,
        3.0675231244003953e-09,
        9.672497469637165e-09
      ]
    },
    {
      "name": "Turtle_FrontFin_Lf_04_039",
      "rotation": [
        5.825712356966051e-09,
        0.07648854702711105,
        1.2009730099293847e-08,
        0.9970705509185791
      ],
      "scale": [
        0.9999999403953552,
        1.0,
        1.0
      ],
      "translation": [
        0.17144839465618134,
        8.442147425569146e-09,
        1.1685871825761751e-08
      ]
    },
    {
      "children": [
        37
      ],
      "name": "Squirt_BackFin_Lf_01_017",
      "rotation": [
        -0.21603627502918243,
        0.9247586727142334,
        -0.18051719665527344,
        0.2560533285140991
      ],
      "scale": [
        1.0,
        1.0,
        0.9999999403953552
      ],
      "translation": [
        -0.16860800981521606,
        -0.09735554456710815,
        -0.1282971054315567
      ]
    },
    {
      "children": [
        38
      ],
      "name": "Squirt_BackFin_Lf_02_028",
      "rotation": [
        -2.666483478463988e-09,
        0.1490335911512375,
        7.2367591918975904e-09,
        0.9888322353363037
      ],
      "scale": [
        1.0,
        0.9999999403953552,
        1.0
      ],
      "translation": [
        0.13169798254966736,
        4.143915077747806e-08,
        -2.1801851990410626e-10
      ]
    },
    {
      "name": "Squirt_BackFin_Lf_03_01",
      "rotation": [
        9.65607416247849e-09,
        0.09761808067560196,
        9.811061296716161e-09,
        0.9952239394187927
      ],
      "scale": [
        1.0,
        0.9999999403953552,
        1.0
      ],
      "translation": [
        0.09818513691425323,
        -3.2338828503952755e-08,
        1.66283165015102e-08
      ]
    },
    {
      "children": [
        40
      ],
      "name": "Squirt_FrontFin_Rt_01_021",
      "rotation": [
        -0.24749425053596497,
        -0.3003646433353424,
        0.8969135880470276,
        0.2099374234676361
      ],
      "translation": [
        0.13625769317150116,
        -0.0928787812590599,
        0.10947269946336746
      ]
    },
    {
      "children": [
        41
      ],
      "name": "Squirt_FrontFin_Rt_02_020",
      "rotation": [
        2.3313216246378943e-08,
        0.5246717929840088,
        -3.343289023405305e-08,
        0.8513045907020569
      ],
      "scale": [
        1.0,
        1.0,
        0.9999999403953552
      ],
      "translation": [
        -0.16881249845027924,
        -5.71150593486891e-08,
        -2.9295595282974318e-08
      ]
    },
    {
      "children": [
        42
      ],
      "name": "Squirt_FrontFin_Rt_03_038",
      "rotation": [
        1.7676487829021426e-08,
        0.19233202934265137,
        1.0679156448034632e-09,
        0.9813299179077148
      ],
      "translation": [
        -0.17742210626602173,
        -5.3604838967658e-07,
        -1.9478024171348807e-07
      ]
    },
    {
      "name": "Squirt_FrontFin_Rt_04_019",
      "rotation": [
        3.4152417782706834e-08,
        0.07648856192827225,
        -6.229400995039214e-09,
        0.9970705509185791
      ],
      "translation": [
        -0.17144691944122314,
        1.1826401760117733e-06,
        6.130043175289757e-07
      ]
    },
    {
      "name": "Squirt_shell_fix_01_022",
      "rotation": [
        2.725897872749944e-16,
        -1.4719729028264575e-15,
        0.1197558119893074,
        0.9928033947944641
      ],
      "translation": [
        0.21053649485111237,
        0.0076664225198328495,
        5.46639806411496e-16
      ]
    },
    {
      "children": [
        45
      ],
      "name": "Squirt_BackFin_Rt_01_035",
      "rotation": [
        0.9247587323188782,
        0.2160363793373108,
        -0.2560533583164215,
        -0.18051718175411224
      ],
      "translation": [
        -0.16860811412334442,
        -0.0973554253578186,
        0.12829700112342834
      ]
    },
    {
      "children": [
        46
      ],
      "name": "Squirt_BackFin_Rt_02_09",
      "rotation": [
        4.1157410812786566e-09,
        0.1490335911512375,
        -1.310497932394128e-09,
        0.9888322353363037
      ],
      "translation": [
        -0.13169719278812408,
        4.7662754809607577e-07,
        -7.042538072710158e-07
      ]
    },
    {
      "name": "Squirt_BackFin_Rt_03_015",
      "rotation": [
        -2.4302280188237546e-09,
        0.09761807322502136,
        -1.2326158760345152e-08,
        0.9952239394187927
      ],
      "translation": [
        -0.09818550944328308,
        -8.822998154300876e-08,
        1.7941509611318907e-08
      ]
    }
  ],
  "samplers": [
    {
      "magFilter": 9729,
      "minFilter": 9987,
      "wrapS": 10497,
      "wrapT": 10497
    }
  ],
  "scene": 0,
  "scenes": [
    {
      "name": "Sketchfab_Scene",
      "nodes": [
        0
      ]
    }
  ],
  "skins": [
    {
      "inverseBindMatrices": 4,
      "joints": [
        4,
        7,
        8,
        9,
        10,
        11,
        12,
        13,
        14,
        15,
        16,
        17,
        18,
        19,
        20,
        21,
        22,
        23,
        24,
        25,
        26,
        27,
        28,
        29,
        30,
        31,
        32,
        33,
        34,
        35,
        36,
        37,
        38,
        39,
        40,
        41,
        42,
        43,
        44,
        45,
        46
      ],
      "skeleton": 4
    }
  ],
  "textures": [
    {
      "sampler": 0,
      "source": 0
    }
  ]
}
